<svg xmlns="http://www.w3.org/2000/svg" viewBox="0 0 315.36 356.83"><defs><style>.cls-1,.cls-10,.cls-2{fill:#fff;}.cls-2{opacity:0.7;}.cls-3{fill:#8a8a8a;}.cls-4{fill:#b0b0b0;}.cls-5,.cls-8{fill:none;}.cls-5{stroke:#92e3a9;}.cls-10,.cls-12,.cls-5,.cls-8,.cls-9{stroke-miterlimit:10;}.cls-14,.cls-6{fill:#92e3a9;}.cls-7{fill:#dedede;}.cls-10,.cls-12,.cls-13,.cls-14,.cls-8,.cls-9{stroke:#263238;}.cls-11,.cls-13,.cls-9{fill:#263238;}.cls-12{fill:gray;}.cls-13,.cls-14{stroke-linecap:round;stroke-linejoin:round;}</style></defs><g id="Background_Simple" data-name="Background Simple"><path class="cls-1" d="M-45.86,206.21s2.49,77.15,66.9,128.58,153.65,55.11,225.91,60,127.75-36,136.11-97.84-46.85-80-76.8-150.36S279,53.06,215.59,9.78,53.06-6.93,1.08,67.23-45.86,206.21-45.86,206.21Z"/><path class="cls-2" d="M-45.86,206.21s2.49,77.15,66.9,128.58,153.65,55.11,225.91,60,127.75-36,136.11-97.84-46.85-80-76.8-150.36S279,53.06,215.59,9.78,53.06-6.93,1.08,67.23-45.86,206.21-45.86,206.21Z"/></g><g id="Plants"><path class="cls-3" d="M188.62,96.44s15.77,33.88,18.45,40.59-1,14.1-5.7,19.13a33.08,33.08,0,0,1-9.06,7.05c-1,.67-11.75,17.11-15.77,29.52s-5.71,22.82-17.78,26.51-30.2-5-33.56-19.46,4.7-27.51,13.76-33.55,15.43-11.75,17.78-15.77,6.71-23.49,10.74-34.23S183.25,94.42,188.62,96.44Z"/></g><g id="Character_2" data-name="Character 2"><path class="cls-4" d="M268.19,74.43c-.92-3.64-12.83-6.33-14.05-5.78-.23.11-.52.93-.84,2.18a15.56,15.56,0,0,0-2-.32c-1.21-.05-2.19,6.38-2.19,6.38s-.09,11,.33,13.68l-22,38.5L189.82,110.4c-2.81,10.86,15.29,28.8,15.29,28.8s24.94,7.84,29.38,5.45,23-52.45,23-52.45a53.7,53.7,0,0,0,5-4.47C264.16,85.84,269.1,78.07,268.19,74.43Z"/><polyline class="cls-5" points="200.74 127.23 229.92 138.67 254.34 91.36 262.19 70.45"/><path class="cls-6" d="M232.54,137.49a2.87,2.87,0,1,0-1.43,3.8A2.87,2.87,0,0,0,232.54,137.49Z"/><path class="cls-6" d="M256.63,89.66a2.87,2.87,0,1,0-1.43,3.8A2.87,2.87,0,0,0,256.63,89.66Z"/><path class="cls-6" d="M264.74,71.23a2.87,2.87,0,1,0-2.87,2.87A2.87,2.87,0,0,0,264.74,71.23Z"/><path class="cls-4" d="M227.94,37.57c-7,.22-11.23,2.15-13.49,3.65-6.81-2.51-15.16-3.09-21.67-.85a20,20,0,0,0-11.95,10,26,26,0,0,0-2.29,6.57,39.24,39.24,0,0,0-.76,5.59c0,.32,0,.64,0,1v.3c0,.23,0,.46,0,.68s0,.25,0,.38,0,.42.05.63,0,.25,0,.38,0,.42.07.63.05.27.07.4.07.41.11.62.05.27.08.4.08.42.13.63.07.26.1.39.1.43.16.64.07.26.11.4l.18.63L179,71l.21.64c0,.13.09.26.13.39s.15.42.23.64.09.25.14.37.16.43.25.64l.15.39.26.62c.05.13.11.25.17.38l.27.62c.05.12.11.24.17.37l.28.61.18.37.29.59.19.37c.1.19.2.38.29.57l.2.37.3.55.2.37c.1.18.2.35.29.53l.21.36c.1.17.2.33.29.5s.15.25.22.37.19.31.28.46l.24.38.25.41c.09.13.17.26.25.39l.24.38.26.39.22.33.27.39.19.29c.1.13.19.27.28.4l.17.24.29.4c0,.06.09.12.13.19l.31.41.1.13c.1.14.21.27.31.4l.07.1.31.39.05,0,.3.38,0,0c.1.13.2.24.29.34h0c.16.18.31.34.44.46,2.5,2.5,1.78,6.79.36,8.58l-.28.34-.67-1.44c-5.37-2-17.11,9-21.14,19.79s-8.39,30.2-10.74,34.23-8.33,9.37-16.93,15.19A75.74,75.74,0,0,0,178.1,188.5c4.72-11.62,13.31-24.7,14.21-25.29a33.08,33.08,0,0,0,9.06-7.05c4.69-5,8.39-12.42,5.7-19.13-1.12-2.79-4.5-10.3-8.07-18.11,1.08-4.63,3.71-15.29,5.93-18.88A37,37,0,0,1,209.22,94s14.64,4.28,17.14,2.14,6.79-15.36,6.79-15.36,5-2.15,4.29-4.65-6.07-3.57-6.43-7.86c-.09-1-.13-1.91-.15-2.71a7.65,7.65,0,0,0,1.8,0c3.64-.36,2.55-4.72,1.46-6.54s3.27-4,5.82-7.64S239.57,37.2,227.94,37.57Z"/><path class="cls-3" d="M212.31,43s4-5.09,15.63-5.45,14.54,10.18,12,13.81S233,57.2,234.12,59s2.18,6.18-1.46,6.54-5.81-1.45-6.18-4.72S217,43.39,212.31,43Z"/><path class="cls-4" d="M231,61.45s-.72-6.78-6.79-13.93-21.08-10.72-31.44-7.15-14.29,11.79-15,22.16S186.71,86.46,189.21,89s1.78,6.79.36,8.58-2.15,2.86-2.15,2.86l11.08,20.72s3.57-16.44,6.43-21.08A37,37,0,0,1,209.22,94s14.64,4.28,17.14,2.14,6.79-15.36,6.79-15.36,5-2.15,4.29-4.65-6.07-3.57-6.43-7.86A33.21,33.21,0,0,1,231,61.45Z"/><path class="cls-3" d="M224.22,47.52c-6.07-7.15-21.08-10.72-31.44-7.15s-14.29,11.79-15,22.16c-.71,10.15,8.54,23.39,11.27,26.26,2.6.12,8.72-1.08,13.38-13.4,0,0,3.93.71,6.79-3.93s-.36-9.29,3.57-14.65c3.26-4.45,12.43-3.73,15.45-3.35A32.43,32.43,0,0,0,224.22,47.52Z"/><path class="cls-4" d="M206.71,76.82s-5-9.65-9.28-7.15S196,80,198.14,83.25s7.5-1.07,7.5-1.07"/><polyline class="cls-5" points="210.19 62.23 193.82 109.12 172.14 159.11 144.27 206"/><path class="cls-6" d="M213.05,62.23a2.87,2.87,0,1,0-2.87,2.87A2.86,2.86,0,0,0,213.05,62.23Z"/><path class="cls-6" d="M196.69,109.12a2.87,2.87,0,1,0-2.87,2.87A2.88,2.88,0,0,0,196.69,109.12Z"/><circle class="cls-6" cx="172.14" cy="159.11" r="2.87"/><circle class="cls-6" cx="144.27" cy="206" r="2.87"/><path class="cls-4" d="M186.16,102.36S131,91.48,126.74,92.23c-3.45.62-31.29,19.49-41.44,26.42,0,0-13.4,5.65-15,8.6S74.09,135,74.09,135A5,5,0,0,0,77,138.89c2.52,1,11-5.49,11.21-7.28.15-1.24,2.21-4.34,3.48-6.14,9.3-4.42,38-16.77,38-16.77s49.16,15.63,55,12.67S195.62,106.73,186.16,102.36Z"/><polyline class="cls-5" points="185.41 111.77 126.64 99.48 89.65 122.18 74.09 135.03"/><path class="cls-6" d="M187.93,113.14A2.87,2.87,0,1,0,184,114.3,2.86,2.86,0,0,0,187.93,113.14Z"/><path class="cls-6" d="M128.17,101.32a2.87,2.87,0,1,0-3.89,1.15A2.87,2.87,0,0,0,128.17,101.32Z"/><path class="cls-6" d="M92.17,123.55a2.87,2.87,0,1,0-3.89,1.15A2.87,2.87,0,0,0,92.17,123.55Z"/><path class="cls-6" d="M76.74,136a2.87,2.87,0,1,0-3.89,1.15A2.87,2.87,0,0,0,76.74,136Z"/><path class="cls-3" d="M184.46,55.47s-6-18.8-18.53-27.68-22.77,1.09-31,4.4S121.27,27.94,115.07,23s-19,3.38-13.83,20.36,28,20.46,38.44,15.89,16.92-13.88,25.93-11.95,16,10.53,16,10.53Z"/><polyline class="cls-5" points="179.41 49.6 157.52 32.88 123.75 46.86 111.03 30.99"/><path class="cls-6" d="M126.27,48.23a2.87,2.87,0,1,0-3.89,1.15A2.88,2.88,0,0,0,126.27,48.23Z"/><path class="cls-6" d="M113.75,32.36a2.87,2.87,0,0,0-5-2.75,2.87,2.87,0,1,0,5,2.75Z"/><path class="cls-6" d="M160,34.25a2.87,2.87,0,1,0-3.89,1.15A2.87,2.87,0,0,0,160,34.25Z"/><path class="cls-6" d="M181.93,51A2.87,2.87,0,1,0,178,52.12,2.88,2.88,0,0,0,181.93,51Z"/><path class="cls-3" d="M133.43,193s-37.53,48.4-37.22,54.2,5.61,13.93,14.67,10.37,42.69-24.24,53.78-38.58S153.55,174.24,133.43,193Z"/><path class="cls-3" d="M138.46,181.31s40.1.79,71.56,13S241.08,209.23,239.9,214s-11.79,7.86-49.54,9-49.54-2-61.73-17.69"/><path class="cls-3" d="M112.35,239.68s-11.76-7.92-25.08-11.36-38.82-11.66-40-12.45S34.46,205.41,33,206,11.73,231.78,11.6,233.53s-.19,2.63,3.44,1.14l6.18-2.55c1.82-.75,20.9-6.05,20.9-6.05s48.69,28.43,55.22,30.84a29.09,29.09,0,0,0,13.23,1.32,18.62,18.62,0,0,0,7.12-4.16"/><path class="cls-4" d="M64.6,221.69c-9-2.82-16.69-5.39-17.33-5.82C46.1,215.08,34.46,205.41,33,206S11.73,231.78,11.6,233.53s-.19,2.63,3.44,1.14l6.18-2.55c1.82-.75,20.9-6.05,20.9-6.05s6.23,3.64,14.54,8.43A26.93,26.93,0,0,1,64.6,221.69Z"/><path class="cls-7" d="M37.26,222.54l7.4-8.71c-3.86-3-10.57-8.27-11.65-7.82-1.46.6-21.28,25.77-21.41,27.52s-.19,2.63,3.44,1.14l6.18-2.55c1.82-.75,20.9-6.05,20.9-6.05l.24.14C41.16,223.83,37.26,222.54,37.26,222.54Z"/><polyline class="cls-5" points="146.49 209.98 107.84 248.51 43.52 218.73 25.8 224.08 11.6 233.53"/><path class="cls-6" d="M109.23,249.16a2.87,2.87,0,1,0-3.82,1.38A2.86,2.86,0,0,0,109.23,249.16Z"/><path class="cls-6" d="M47.12,221a2.87,2.87,0,1,0-3.82,1.38A2.88,2.88,0,0,0,47.12,221Z"/><path class="cls-6" d="M28.4,225.3a2.87,2.87,0,1,0-3.82,1.37A2.87,2.87,0,0,0,28.4,225.3Z"/><path class="cls-6" d="M15.69,234.32a2.87,2.87,0,1,0-3.81,1.38A2.86,2.86,0,0,0,15.69,234.32Z"/><path class="cls-3" d="M247.47,298.82c2.57-.85,9.25-.81,13.82-2.18-4.57-4.77-8.33-8.72-8.33-8.72s-10.41-71.18-12.53-76.69-6-7-10.91-5l-22,11.67S247.57,298.1,247.47,298.82Z"/><path class="cls-4" d="M247.47,298.82c2.57-.85,9.25-.81,13.82-2.18-4.57-4.77-8.33-8.72-8.33-8.72s-1.19-7.26-2.87-17.31a25.46,25.46,0,0,1-13.88,5C242.29,287.87,247.51,298.52,247.47,298.82Z"/><path class="cls-7" d="M253.84,311.76c2.36-.41,26.46-11.07,29.55-14s6.79-8.56,3.51-9.39-6.74,2.21-12.29,3.11-22.88-4.13-22.88-4.13c-1.16,3.55,4,9.42,4,9.42l-8.25,2S251.49,312.17,253.84,311.76Z"/><polyline class="cls-5" points="287.23 289.76 269.17 297.13 250.01 291.61 226.79 214.94 139.4 193.89"/><path class="cls-6" d="M252.88,291.6a2.87,2.87,0,1,0-2.87,2.87A2.87,2.87,0,0,0,252.88,291.6Z"/><path class="cls-6" d="M229.66,214.94a2.87,2.87,0,1,0-2.87,2.87A2.88,2.88,0,0,0,229.66,214.94Z"/><path class="cls-6" d="M142.27,193.89a2.87,2.87,0,1,0-2.87,2.87A2.87,2.87,0,0,0,142.27,193.89Z"/><circle class="cls-6" cx="269.17" cy="297.13" r="2.87"/><path class="cls-6" d="M288.63,290.5a2.87,2.87,0,1,0-2.87,2.87A2.87,2.87,0,0,0,288.63,290.5Z"/></g><g id="Character_1" data-name="Character 1"><line class="cls-8" x1="21.07" y1="345.56" x2="304.07" y2="345.56"/><path class="cls-9" d="M184.25,53.9S170,40.25,154.74,38.45s-19.47,11.84-25.1,18.67-14,2.81-21.88,1.4S92.7,70.57,105.35,83s34.33,4.62,41.36-4.41,8.23-20.28,17.06-22.89,19.08,1.61,19.08,1.61Z"/><polyline class="cls-5" points="177.01 51.16 149.79 46.93 126.81 75.36 108.06 67.5"/><path class="cls-6" d="M129.68,75.36a2.87,2.87,0,1,0-2.87,2.87A2.87,2.87,0,0,0,129.68,75.36Z"/><circle class="cls-6" cx="108.23" cy="67.4" r="2.87"/><path class="cls-6" d="M152.66,46.93a2.87,2.87,0,1,0-2.87,2.87A2.88,2.88,0,0,0,152.66,46.93Z"/><path class="cls-6" d="M179.88,51.16A2.87,2.87,0,1,0,177,54,2.87,2.87,0,0,0,179.88,51.16Z"/><path class="cls-10" d="M194,111.53l26.5,32.55,37.25-26.84s10.73-17.11,12.08-17.11,11.07,7.38,10.4,11.07-8.39,8.72-10.74,9.73a53.4,53.4,0,0,1-6.37,2s-37.58,37.92-42.62,38.25S196,144.08,196,144.08,186.94,120.26,194,111.53Z"/><path class="cls-10" d="M256.39,118.64c0-1.36,5.45-13.08,5.45-13.08s3.55-5.46,4.64-4.91,7.36,5.18,6.54,6.54-6.27-.82-6.27-.82,3.27,5.73-1.09,9.82"/><line class="cls-8" x1="268.11" y1="108.01" x2="274.11" y2="113.19"/><polyline class="cls-5" points="188.15 119.03 218.81 153.86 260.61 120.88 276.4 105.09"/><path class="cls-6" d="M221.68,153.86a2.87,2.87,0,1,0-2.87,2.87A2.88,2.88,0,0,0,221.68,153.86Z"/><path class="cls-6" d="M263.39,120.28a2.87,2.87,0,1,0-2.87,2.87A2.86,2.86,0,0,0,263.39,120.28Z"/><path class="cls-9" d="M212.31,43s4-5.09,15.63-5.45,14.54,10.18,12,13.81S233,57.2,234.12,59s2.18,6.18-1.46,6.54-5.81-1.45-6.18-4.72S217,43.39,212.31,43Z"/><path class="cls-10" d="M231,61.45s-.72-6.78-6.79-13.93-21.08-10.72-31.44-7.15-14.29,11.79-15,22.16S186.71,86.46,189.21,89s1.78,6.79.36,8.58-2.15,2.86-2.15,2.86l11.08,20.72s3.57-16.44,6.43-21.08A37,37,0,0,1,209.22,94s14.64,4.28,17.14,2.14,6.79-15.36,6.79-15.36,5-2.15,4.29-4.65-6.07-3.57-6.43-7.86A33.21,33.21,0,0,1,231,61.45Z"/><ellipse class="cls-11" cx="225.81" cy="70.82" rx="1.16" ry="2.33"/><path class="cls-8" d="M221.54,63.64a4.77,4.77,0,0,1,5.83.78"/><path class="cls-8" d="M228.36,84.28s-4.49.45-5.39-2.69"/><path class="cls-9" d="M224.22,47.52c-6.07-7.15-21.08-10.72-31.44-7.15s-14.29,11.79-15,22.16c-.71,10.15,8.54,23.39,11.27,26.26,2.6.12,8.72-1.08,13.38-13.4,0,0,3.93.71,6.79-3.93s-.36-9.29,3.57-14.65c3.26-4.45,12.43-3.73,15.45-3.35A32.43,32.43,0,0,0,224.22,47.52Z"/><path class="cls-10" d="M206.71,76.82s-5-9.65-9.28-7.15S196,80,198.14,83.25s7.5-1.07,7.5-1.07"/><path class="cls-9" d="M188.62,96.44s15.77,33.88,18.45,40.59-1,14.1-5.7,19.13a33.08,33.08,0,0,1-9.06,7.05c-1,.67-11.75,17.11-15.77,29.52s-5.71,22.82-17.78,26.51-30.2-5-33.56-19.46,4.7-27.51,13.76-33.55,15.43-11.75,17.78-15.77,6.71-23.49,10.74-34.23S183.25,94.42,188.62,96.44Z"/><path class="cls-12" d="M201.37,156.16c4.69-5,8.39-12.42,5.7-19.13s-18.45-40.59-18.45-40.59c-5.37-2-17.11,9-21.14,19.79s-8.39,30.2-10.74,34.23-8.33,9.37-16.93,15.19A75.74,75.74,0,0,0,178.1,188.5c4.72-11.62,13.31-24.7,14.21-25.29A33.08,33.08,0,0,0,201.37,156.16Z"/><path class="cls-8" d="M177.89,127.26s4.87,19.46,8,24.33"/><path class="cls-8" d="M173.47,128.58s4.42,11.51,6.19,16.81"/><path class="cls-8" d="M148.25,168s15.93,2.66,32.3-1.32"/><path class="cls-8" d="M156.66,164.86s19.88-1,32.29-4.87"/><polyline class="cls-5" points="210.19 62.23 193.82 109.12 172.14 159.11 144.27 206"/><path class="cls-6" d="M213.05,62.23a2.87,2.87,0,1,0-2.87,2.87A2.86,2.86,0,0,0,213.05,62.23Z"/><path class="cls-6" d="M196.69,109.12a2.87,2.87,0,1,0-2.87,2.87A2.88,2.88,0,0,0,196.69,109.12Z"/><circle class="cls-6" cx="172.14" cy="159.11" r="2.87"/><circle class="cls-6" cx="144.27" cy="206" r="2.87"/><path class="cls-9" d="M127.45,200.18S114.08,260,116.83,265.06s11,10.22,17.7,3.15,28.31-40.11,32.24-57.8S137.67,174.63,127.45,200.18Z"/><path class="cls-9" d="M120.76,254.05s-11.79,7.86-20.05,18.87S75.15,304.38,74,305.17,59.43,313,59.43,314.6s15.72,29.49,17.3,30.28,2.36,1.18,2.36-2.75v-6.69c0-2,2.36-21.62,2.36-21.62S126.27,279.61,131,274.5s9.83-15.34,9.83-15.34"/><path class="cls-10" d="M86,291.36c-6,7.27-11.35,13.38-12,13.81C72.8,306,59.43,313,59.43,314.6s15.72,29.49,17.3,30.28,2.36,1.18,2.36-2.75v-6.69c0-2,2.36-21.62,2.36-21.62s5.74-4.38,13.32-10.24A26.9,26.9,0,0,1,86,291.36Z"/><path class="cls-10" d="M76.33,317,71.1,306.81c-4.28,2.41-11.67,6.62-11.67,7.79,0,1.57,15.72,29.49,17.3,30.28s2.36,1.18,2.36-2.75v-6.69c0-2,2.36-21.62,2.36-21.62l.22-.18C79,313.85,76.33,317,76.33,317Z"/><polyline class="cls-5" points="146.49 209.98 127.91 261.29 78.8 309.51 74.82 330.3 78.8 344.9"/><path class="cls-6" d="M129.45,261.29a2.87,2.87,0,1,0-2.87,2.87A2.88,2.88,0,0,0,129.45,261.29Z"/><path class="cls-6" d="M81.67,309.51a2.87,2.87,0,1,0-2.87,2.87A2.86,2.86,0,0,0,81.67,309.51Z"/><path class="cls-6" d="M77.92,330.3a2.87,2.87,0,1,0-2.87,2.87A2.88,2.88,0,0,0,77.92,330.3Z"/><path class="cls-6" d="M81.46,343.57a2.87,2.87,0,1,0-2.87,2.87A2.88,2.88,0,0,0,81.46,343.57Z"/><path class="cls-9" d="M138.46,181.31s40.1.79,71.56,13S241.08,209.23,239.9,214s-11.79,7.86-49.54,9-49.54-2-61.73-17.69"/><path class="cls-9" d="M202.94,217.09l-36.57,59.37s-13.36,3.93-13,6.29,7.86,25.17,9.44,29.1,5.5,9.44,7.47,6.68.39-7.07,1.57-12.58,5.9-25.16,5.9-25.16,56.22-55.44,59.76-60.16,3.54-7.86-.78-11"/><path class="cls-10" d="M178,257.6l-11.62,18.86s-13.36,3.93-13,6.29,7.86,25.17,9.44,29.1,5.5,9.44,7.47,6.68.39-7.07,1.57-12.58,5.9-25.16,5.9-25.16,5.12-5.05,12.36-12.22C182,266.72,179.07,261.17,178,257.6Z"/><path class="cls-10" d="M153.4,282.75c.39,2.36,7.86,25.17,9.44,29.1s5.5,9.44,7.47,6.68.39-7.07,1.57-12.58,5.9-25.16,5.9-25.16c-3.54-1.18-9.44,3.93-9.44,3.93l-2-8.26S153,280.39,153.4,282.75Z"/><polyline class="cls-5" points="137.64 193.61 227 213.52 173.47 279.87 168.6 301.99 170.31 318.53"/><path class="cls-6" d="M140.06,193.17A2.87,2.87,0,1,0,137.2,196,2.86,2.86,0,0,0,140.06,193.17Z"/><path class="cls-6" d="M228.54,213.52a2.87,2.87,0,1,0-2.87,2.87A2.87,2.87,0,0,0,228.54,213.52Z"/><circle class="cls-6" cx="174.35" cy="280.76" r="2.87"/><circle class="cls-6" cx="168.6" cy="301.99" r="2.87"/><path class="cls-6" d="M173.68,319a2.87,2.87,0,1,0-2.87,2.87A2.86,2.86,0,0,0,173.68,319Z"/><path class="cls-10" d="M181.57,103.15s-53.68,16.77-57,19.46c-2.74,2.19-18.2,32.06-23.8,43,0,0-9.08,11.36-9.08,14.72s7,5,7,5a5,5,0,0,0,4.36,2c2.68-.33,7-10.06,6.37-11.74-.46-1.16-.13-4.87.13-7.06,6.06-8.31,25.37-32.87,25.37-32.87s50.67-9.73,54.36-15.1S192,102.47,181.57,103.15Z"/><polyline class="cls-5" points="185.41 111.77 127.91 129.03 106.23 166.63 98.69 185.35"/><path class="cls-6" d="M188.28,111.77a2.87,2.87,0,1,0-2.87,2.87A2.87,2.87,0,0,0,188.28,111.77Z"/><circle class="cls-6" cx="127.25" cy="129.91" r="2.87"/><circle class="cls-6" cx="106.23" cy="166.63" r="2.87"/><circle class="cls-6" cx="98.61" cy="184.93" r="2.87"/></g><g id="Window_2" data-name="Window 2"><rect class="cls-8" width="315.36" height="356.83"/><rect class="cls-13" width="315.36" height="15.43"/><path class="cls-14" d="M13,6.72A3.27,3.27,0,1,1,9.77,3.45,3.27,3.27,0,0,1,13,6.72Z"/><path class="cls-14" d="M23,6.72a3.27,3.27,0,1,1-3.27-3.27A3.27,3.27,0,0,1,23,6.72Z"/><path class="cls-14" d="M32.88,6.72a3.27,3.27,0,1,1-3.27-3.27A3.27,3.27,0,0,1,32.88,6.72Z"/></g></svg>