<svg xmlns="http://www.w3.org/2000/svg" viewBox="0 0 500 500"><defs><style>.cls-1,.cls-13{fill:#92e3a9;}.cls-10,.cls-18,.cls-19,.cls-2{fill:#fff;}.cls-2{opacity:0.7;}.cls-3{fill:#8a8a8a;}.cls-12,.cls-4,.cls-9{fill:#263238;}.cls-5{fill:#b0b0b0;}.cls-16,.cls-17,.cls-6,.cls-8{fill:none;}.cls-6{stroke:#92e3a9;}.cls-10,.cls-11,.cls-6,.cls-8,.cls-9{stroke-miterlimit:10;}.cls-7{fill:#dedede;}.cls-10,.cls-11,.cls-12,.cls-13,.cls-14,.cls-15,.cls-17,.cls-19,.cls-8,.cls-9{stroke:#263238;}.cls-11,.cls-15{fill:gray;}.cls-12,.cls-13,.cls-14,.cls-15,.cls-16,.cls-17,.cls-19{stroke-linecap:round;stroke-linejoin:round;}.cls-14{fill:#ababab;}.cls-16{stroke:#fff;}.cls-20{fill:#4a4a4a;}</style></defs><g id="Background_Simple" data-name="Background Simple"><path class="cls-1" d="M33.07,244.65S35.56,321.8,100,373.23s153.66,55.11,225.91,60,127.75-36,136.11-97.85-46.85-80-76.8-150.36S357.9,91.5,294.52,48.22,132,31.51,80,105.67,33.07,244.65,33.07,244.65Z"/><path class="cls-2" d="M33.07,244.65S35.56,321.8,100,373.23s153.66,55.11,225.91,60,127.75-36,136.11-97.85-46.85-80-76.8-150.36S357.9,91.5,294.52,48.22,132,31.51,80,105.67,33.07,244.65,33.07,244.65Z"/></g><g id="Plants"><path class="cls-3" d="M267.55,134.88s15.77,33.88,18.45,40.6-1,14.09-5.7,19.12a32.69,32.69,0,0,1-9.06,7.05c-1,.67-11.74,17.11-15.77,29.52s-5.7,22.82-17.78,26.51-30.2-5-33.56-19.46,4.7-27.51,13.76-33.55,15.43-11.75,17.78-15.77,6.71-23.49,10.74-34.23S262.18,132.86,267.55,134.88Z"/><path class="cls-4" d="M28.5,276.82c2.26-.32,6.54-3.12,6.55-3.12s-2.7-2.26-2.89-2.39c-2.19-1.4-7.25-2.82-9.5-1a3.46,3.46,0,0,0-.07,5.13C24.05,276.92,26.58,277.1,28.5,276.82Z"/><path class="cls-4" d="M70.28,255.56s-1-3.38-1.09-3.59c-1.06-2.37-4.49-6.35-7.39-6.05a3.45,3.45,0,0,0-2.89,4.24c.42,2,2.43,3.56,4.19,4.39C65.16,255.52,70.27,255.56,70.28,255.56Z"/><path class="cls-4" d="M71.7,287.1A3,3,0,0,0,70,291.28c.74,1.65,2.75,2.6,4.42,3a13.33,13.33,0,0,0,4.15-.1v-4C77,288.45,73.84,286.39,71.7,287.1Z"/><path class="cls-4" d="M78.58,313.64c-.53-.66-1.08-1.33-1.67-2-.79-.95-1.65-1.94-2.55-2.95a34.08,34.08,0,0,0,2.27-3.13,9.18,9.18,0,0,0,2,.36v-6.54a9.41,9.41,0,0,0-1.08-.74,5.5,5.5,0,0,0-.36-.57,3,3,0,0,0-4.49-.46c-1.85,1.77-1.13,6.33-.13,8.38,0,.12.84,1.37,1.35,2.15-.37-.41-.72-.82-1.11-1.24-.75-.83-1.53-1.64-2.36-2.52l-1.27-1.23c-.41-.42-.9-.82-1.35-1.23-1.08-.94-2.21-1.83-3.37-2.71.73-.66,3.28-3.05,4-4.62s1.12-3.75.24-5.33a3,3,0,0,0-4.36-1.14c-2.1,1.47-2.08,6.09-1.4,8.27,0,.14.7,1.65,1.08,2.47-.71-.52-1.4-1-2.13-1.55-2.1-1.46-4.27-2.87-6.43-4.29-.67-.43-1.32-.87-2-1.31.26-.23,3.36-3,4.13-4.77.69-1.56,1.13-3.74.25-5.32a3,3,0,0,0-4.36-1.14c-2.1,1.47-2.08,6.08-1.41,8.27.05.16,1,2.34,1.27,2.88-1.44-1-2.87-1.94-4.25-3a55.38,55.38,0,0,1-5.3-4.45c.13-.11,3.37-3,4.16-4.79.69-1.57,1.13-3.75.25-5.33a3,3,0,0,0-4.37-1.14c-2.09,1.47-2.07,6.09-1.4,8.27,0,.14.77,1.8,1.13,2.58l-.12.09A38.79,38.79,0,0,1,39,278.5c-.74-1-1.39-2.08-2-3.11.66-.47,3.64-2.68,4.54-4.22s1.53-3.6.82-5.26a3,3,0,0,0-4.21-1.62c-2.24,1.23-2.73,5.82-2.3,8.07,0,.12.4,1.34.68,2.22-.26-.47-.55-.95-.8-1.4-.92-1.7-1.67-3.31-2.32-4.74-.36-.82-.68-1.57-1-2.27.4-.8,2-4.06,2.07-5.81s-.3-3.9-1.69-5.05a3,3,0,0,0-4.48.51c-1.43,2.12.25,6.42,1.67,8.22.12.15,2.31,2.36,2.34,2.31l0,0c.26.68.55,1.4.88,2.19.62,1.45,1.33,3.08,2.23,4.81a52.28,52.28,0,0,0,3.15,5.43A39.72,39.72,0,0,0,43,284.25l.06.06c-.66-.36-2.53-1.31-2.68-1.37-2.15-.79-6.76-1.07-8.34.95a3,3,0,0,0,.9,4.41c1.52,1,3.73.65,5.33.06,1.8-.68,4.75-3.63,5-3.86a53.44,53.44,0,0,0,5.37,4.72c1.1.85,2.23,1.68,3.38,2.49l-1.18-.58c-2.14-.79-6.75-1.07-8.33.95a3,3,0,0,0,.9,4.41c1.52,1,3.73.66,5.33.06s4.19-3.08,4.86-3.74l1.32.93c2.14,1.46,4.27,2.92,6.32,4.41.72.52,1.41,1.07,2.11,1.61-.52-.26-.95-.48-1-.5-2.15-.8-6.75-1.07-8.34.94a3,3,0,0,0,.9,4.42c1.53,1,3.73.65,5.33.05s3.94-2.83,4.74-3.61c.69.57,1.39,1.15,2,1.74.43.41.87.78,1.29,1.22l1.23,1.26c.76.83,1.55,1.68,2.26,2.52.51.57,1,1.12,1.45,1.68-.71-.53-2.13-1.54-2.26-1.61-2-1.11-6.51-2.08-8.38-.33a3,3,0,0,0,.22,4.5c1.36,1.19,3.59,1.21,5.26.86,1.84-.38,5.08-2.74,5.49-3,.78.93,1.53,1.84,2.23,2.71,1,1.24,1.9,2.41,2.71,3.48h.13Z"/><path class="cls-4" d="M65.13,268.55c1.87.43,6-.4,6.29-.46A54.5,54.5,0,0,0,73.3,275c.44,1.32.93,2.63,1.44,3.94-.32-.56-.61-1.06-.66-1.13-1.35-1.84-5-4.62-7.47-3.81a3,3,0,0,0-1.69,4.18c.74,1.65,2.75,2.6,4.41,3s5.19-.25,6.12-.43c.2.5.39,1,.6,1.5.86,2.15,1.73,4.29,2.53,6.41v-2.75c-.56-1.33-1.13-2.67-1.7-4-.32-.73-.62-1.46-.93-2.18.18,0,1.33-.2,2.63-.5v-6.61a12,12,0,0,0-2.15,3.87c-.05.16-.46,2.5-.53,3.1-.68-1.6-1.33-3.2-1.91-4.81a53.16,53.16,0,0,1-2-6.64c.16,0,4.46-.63,6.11-1.7l.45-.31v-7.33a3,3,0,0,0-.31,0c-2.56.06-5.1,3.93-5.74,6.12,0,.14-.35,1.92-.48,2.78H71.9a40.25,40.25,0,0,1-.74-6.92c0-1.28,0-2.5.06-3.69.81,0,4.52-.22,6.12-1a9.1,9.1,0,0,0,1.24-.75v-6.8l-.27-.05c-2.55-.21-5.49,3.35-6.37,5.45,0,.12-.41,1.34-.66,2.23,0-.53.07-1.09.11-1.6.16-1.93.43-3.69.68-5.24.15-.89.3-1.68.45-2.42.78-.45,3.9-2.29,4.93-3.71a8.6,8.6,0,0,0,1.13-2.1v-3.62a3,3,0,0,0-3.77-1.47c-2.36,1-3.33,5.5-3.14,7.78,0,.19.63,3.24.67,3.22l0,0c-.15.71-.32,1.48-.48,2.32-.28,1.55-.59,3.3-.79,5.24a53.12,53.12,0,0,0-.36,6.27,38.92,38.92,0,0,0,.59,7s0,.05,0,.08c-.35-.67-1.39-2.49-1.49-2.62-1.35-1.84-5-4.62-7.47-3.81a3,3,0,0,0-1.69,4.18C61.45,267.22,63.46,268.17,65.13,268.55Z"/><path class="cls-4" d="M444.91,110.26c-2.26-.32-6.54-3.11-6.54-3.12s2.69-2.26,2.88-2.38c2.19-1.41,7.25-2.83,9.5-1a3.45,3.45,0,0,1,.07,5.13C449.36,110.36,446.83,110.54,444.91,110.26Z"/><path class="cls-4" d="M403.13,89c-.05,0,1-3.38,1.1-3.58,1-2.38,4.48-6.36,7.38-6a3.45,3.45,0,0,1,2.89,4.23c-.42,2-2.43,3.56-4.19,4.39C408.25,89,403.14,89,403.13,89Z"/><path class="cls-4" d="M401.71,120.54a3,3,0,0,1,1.69,4.18c-.74,1.65-2.75,2.6-4.42,3a13.36,13.36,0,0,1-4.15-.11v-3.95C396.47,121.89,399.57,119.84,401.71,120.54Z"/><path class="cls-4" d="M394.83,147.08c.53-.65,1.08-1.33,1.67-2,.79-1,1.66-1.94,2.55-3a34.08,34.08,0,0,1-2.27-3.13,9.18,9.18,0,0,1-1.95.36v-6.54a8.71,8.71,0,0,1,1.09-.74,3,3,0,0,1,.36-.56,3,3,0,0,1,4.48-.47c1.85,1.77,1.13,6.33.14,8.39-.06.12-.85,1.36-1.36,2.14.37-.41.72-.82,1.11-1.23.75-.84,1.53-1.65,2.36-2.52l1.27-1.24c.41-.42.9-.81,1.36-1.23,1.07-.93,2.2-1.83,3.36-2.71-.72-.66-3.28-3.05-4-4.62s-1.12-3.75-.24-5.32a3,3,0,0,1,4.36-1.15c2.1,1.47,2.08,6.09,1.41,8.27-.05.14-.71,1.65-1.08,2.48.7-.53,1.4-1.05,2.12-1.56,2.1-1.46,4.28-2.87,6.44-4.29l2-1.31c-.26-.23-3.36-3-4.13-4.77-.69-1.56-1.13-3.74-.25-5.32a3,3,0,0,1,4.37-1.14c2.09,1.47,2.07,6.09,1.4,8.27,0,.16-1,2.34-1.27,2.88,1.44-1,2.88-1.94,4.25-3a54,54,0,0,0,5.3-4.45c-.13-.11-3.37-3-4.16-4.79-.69-1.57-1.13-3.75-.24-5.32a3,3,0,0,1,4.36-1.15c2.09,1.47,2.08,6.09,1.4,8.27,0,.15-.77,1.81-1.13,2.59l.12.08a39.41,39.41,0,0,0,4.44-5.36c.73-1,1.38-2.09,2-3.12-.66-.47-3.65-2.67-4.54-4.22s-1.53-3.6-.83-5.26a3,3,0,0,1,4.21-1.61c2.24,1.23,2.73,5.82,2.3,8.06,0,.12-.39,1.34-.68,2.22.27-.47.55-1,.8-1.4.93-1.7,1.67-3.31,2.32-4.74.37-.82.68-1.57,1-2.27-.4-.8-2-4.06-2.07-5.81s.3-3.9,1.69-5a3,3,0,0,1,4.48.51c1.43,2.12-.25,6.42-1.67,8.22-.12.15-2.31,2.36-2.33,2.32l0,0c-.26.68-.55,1.41-.88,2.19-.62,1.45-1.33,3.09-2.22,4.81a54.32,54.32,0,0,1-3.16,5.43,39,39,0,0,1-4.36,5.51l-.06.06c.66-.36,2.53-1.31,2.69-1.36,2.14-.8,6.75-1.07,8.33.94a3,3,0,0,1-.9,4.42c-1.52,1-3.73.65-5.33,0-1.8-.68-4.75-3.63-5-3.86a53.44,53.44,0,0,1-5.37,4.72c-1.1.86-2.23,1.68-3.38,2.49.58-.29,1.1-.55,1.18-.57,2.14-.8,6.75-1.07,8.33.94a3,3,0,0,1-.9,4.42c-1.52,1-3.72.65-5.32.05s-4.2-3.07-4.87-3.73l-1.32.92c-2.13,1.47-4.27,2.92-6.32,4.41-.72.53-1.41,1.07-2.11,1.61l1-.5c2.15-.79,6.76-1.07,8.34.94a3,3,0,0,1-.9,4.42c-1.52,1-3.73.65-5.33.05s-3.94-2.83-4.74-3.61c-.69.58-1.39,1.15-2,1.74-.43.41-.87.78-1.28,1.22l-1.24,1.26c-.76.83-1.54,1.69-2.26,2.52-.51.57-1,1.13-1.45,1.69.71-.54,2.13-1.55,2.26-1.62,2-1.11,6.51-2.08,8.38-.33a3,3,0,0,1-.22,4.51c-1.36,1.18-3.58,1.2-5.26.86-1.84-.39-5.08-2.75-5.49-3-.78.92-1.53,1.83-2.22,2.7-1,1.24-1.91,2.41-2.72,3.48h-.13Z"/><path class="cls-4" d="M408.28,102c-1.87.44-6-.4-6.29-.46a52.44,52.44,0,0,1-1.88,6.9c-.44,1.32-.93,2.63-1.44,3.94.32-.56.61-1.06.66-1.13,1.35-1.84,5-4.61,7.47-3.81a3,3,0,0,1,1.69,4.18c-.74,1.65-2.75,2.6-4.41,3s-5.19-.26-6.12-.44c-.2.5-.39,1-.59,1.51-.87,2.14-1.73,4.28-2.54,6.4v-2.74c.56-1.34,1.13-2.67,1.71-4l.92-2.18c-.18,0-1.33-.2-2.63-.5V106A12,12,0,0,1,397,109.9c0,.16.45,2.5.52,3.1.68-1.6,1.33-3.2,1.91-4.81a53.16,53.16,0,0,0,2-6.64c-.16,0-4.46-.63-6.11-1.7-.15-.09-.3-.2-.45-.31V92.22a3.16,3.16,0,0,1,.32,0c2.55.07,5.09,3.93,5.73,6.12,0,.14.35,1.93.48,2.78h.15a40.25,40.25,0,0,0,.74-6.92c0-1.28,0-2.5-.06-3.69-.81,0-4.52-.22-6.11-1a8.62,8.62,0,0,1-1.25-.75V81.92a2.61,2.61,0,0,1,.27-.06c2.55-.21,5.5,3.35,6.38,5.46,0,.11.4,1.33.65,2.22,0-.53-.06-1.09-.11-1.6-.16-1.93-.43-3.69-.68-5.24-.14-.88-.3-1.68-.45-2.42-.78-.45-3.9-2.29-4.93-3.7a9.63,9.63,0,0,1-1.13-2.11V70.85a3,3,0,0,1,3.77-1.47c2.37,1,3.34,5.5,3.14,7.78,0,.2-.62,3.25-.67,3.22l0,0c.16.71.32,1.47.48,2.31.28,1.55.59,3.31.79,5.24a53.25,53.25,0,0,1,.36,6.27,38.84,38.84,0,0,1-.59,7,.31.31,0,0,1,0,.08c.35-.66,1.39-2.49,1.49-2.62,1.35-1.84,5-4.61,7.47-3.81A3,3,0,0,1,412.7,99C412,100.66,410,101.61,408.28,102Z"/></g><g id="Character_2" data-name="Character 2"><path class="cls-5" d="M347.12,112.87c-.92-3.64-12.83-6.33-14.05-5.78-.23.11-.52.93-.83,2.18a16.13,16.13,0,0,0-2-.32c-1.22,0-2.19,6.38-2.19,6.38s-.1,11,.32,13.68l-22,38.5-37.59-18.67c-2.81,10.86,15.29,28.8,15.29,28.8s24.94,7.84,29.38,5.45,23-52.45,23-52.45a53.7,53.7,0,0,0,5-4.47C343.09,124.28,348,116.51,347.12,112.87Z"/><polyline class="cls-6" points="279.67 165.67 308.85 177.11 333.27 129.8 341.12 108.89"/><path class="cls-1" d="M311.47,175.93a2.87,2.87,0,1,0-1.43,3.8A2.87,2.87,0,0,0,311.47,175.93Z"/><path class="cls-1" d="M335.56,128.1a2.87,2.87,0,1,0-1.43,3.8A2.87,2.87,0,0,0,335.56,128.1Z"/><path class="cls-1" d="M343.67,109.67a2.87,2.87,0,1,0-2.87,2.87A2.87,2.87,0,0,0,343.67,109.67Z"/><path class="cls-5" d="M306.87,76c-7,.22-11.23,2.15-13.49,3.65-6.81-2.51-15.16-3.09-21.67-.84A20.66,20.66,0,0,0,261.54,86a20.92,20.92,0,0,0-1.78,2.85,26,26,0,0,0-2.29,6.57,39.24,39.24,0,0,0-.76,5.59c0,.32,0,.64,0,1,0,.1,0,.2,0,.3s0,.46,0,.68,0,.25,0,.38,0,.42,0,.63,0,.26.05.38.05.42.08.63,0,.27.06.4.07.41.11.62.05.27.08.4.08.42.13.63.07.26.1.4.1.42.16.63.07.26.11.4l.18.63.12.39.21.64c0,.13.09.26.13.39s.15.43.23.64.1.25.14.38.16.42.25.63.1.26.16.39.16.42.25.62l.17.38.27.62c.05.12.11.24.17.37l.28.61.18.37.29.59c.06.13.13.25.19.37s.2.39.3.57.13.25.19.37l.3.55.2.37.3.53.21.36.28.5.23.37.27.46.24.38.25.41c.09.13.17.26.25.39l.24.38.26.39.22.33.27.4c.06.09.13.18.19.28l.28.4.17.24.29.4.14.19.3.41.1.13.31.4.07.1c.11.14.21.27.32.39l0,0,.3.38,0,0,.29.35h0c.16.18.31.34.44.46,2.5,2.51,1.79,6.79.36,8.58l-.28.35-.67-1.45c-5.37-2-17.11,9.06-21.14,19.79s-8.39,30.2-10.74,34.23-8.33,9.37-16.93,15.19A75.74,75.74,0,0,0,257,226.94c4.72-11.62,13.31-24.7,14.21-25.29a32.69,32.69,0,0,0,9.06-7.05c4.7-5,8.39-12.41,5.7-19.12-1.12-2.8-4.5-10.31-8.07-18.11,1.08-4.64,3.72-15.29,5.93-18.89a37.7,37.7,0,0,1,4.29-6.07s14.64,4.28,17.15,2.14,6.78-15.36,6.78-15.36,5-2.15,4.29-4.65-6.07-3.57-6.43-7.86c-.08-1-.13-1.91-.15-2.71a7.73,7.73,0,0,0,1.81,0c3.63-.36,2.54-4.72,1.45-6.54s3.27-4,5.82-7.64S318.5,75.65,306.87,76Z"/><path class="cls-3" d="M291.24,81.46s4-5.09,15.63-5.45,14.54,10.18,12,13.81-6.91,5.82-5.82,7.64,2.18,6.18-1.45,6.54-5.82-1.45-6.18-4.72S296,81.83,291.24,81.46Z"/><path class="cls-5" d="M309.94,99.89s-.71-6.78-6.79-13.93-21.08-10.72-31.44-7.14-14.29,11.79-15,22.15,8.93,23.93,11.43,26.43,1.79,6.79.36,8.58-2.15,2.86-2.15,2.86l11.08,20.72s3.57-16.44,6.43-21.08a37.7,37.7,0,0,1,4.29-6.07s14.64,4.28,17.15,2.14,6.78-15.36,6.78-15.36,5-2.15,4.29-4.65-6.07-3.57-6.43-7.86A33.25,33.25,0,0,1,309.94,99.89Z"/><path class="cls-3" d="M303.15,86c-6.07-7.14-21.08-10.72-31.44-7.14s-14.29,11.79-15,22.15c-.7,10.15,8.55,23.39,11.27,26.27,2.61.11,8.72-1.09,13.38-13.41,0,0,3.93.71,6.79-3.93s-.36-9.29,3.57-14.65c3.26-4.45,12.43-3.73,15.45-3.35A32.43,32.43,0,0,0,303.15,86Z"/><path class="cls-5" d="M285.65,115.26s-5-9.65-9.29-7.15-1.43,10.36.71,13.58,7.5-1.07,7.5-1.07"/><polyline class="cls-6" points="289.12 100.67 272.75 147.56 251.07 197.55 223.2 244.44"/><path class="cls-1" d="M292,100.67a2.87,2.87,0,1,0-2.87,2.87A2.88,2.88,0,0,0,292,100.67Z"/><path class="cls-1" d="M275.62,147.56a2.87,2.87,0,1,0-2.87,2.87A2.88,2.88,0,0,0,275.62,147.56Z"/><circle class="cls-1" cx="251.07" cy="197.55" r="2.87"/><circle class="cls-1" cx="223.2" cy="244.44" r="2.87"/><path class="cls-5" d="M265.09,140.8s-55.19-10.88-59.42-10.13c-3.45.62-31.29,19.49-41.44,26.42,0,0-13.39,5.65-15,8.6s3.79,7.79,3.79,7.79a5.06,5.06,0,0,0,2.87,3.85c2.52,1,11-5.49,11.21-7.28.15-1.24,2.21-4.34,3.48-6.14,9.3-4.41,38-16.77,38-16.77s49.16,15.63,55,12.67S274.55,145.17,265.09,140.8Z"/><polyline class="cls-6" points="264.34 150.22 205.58 137.93 168.58 160.62 153.02 173.48"/><path class="cls-1" d="M266.87,151.58a2.87,2.87,0,1,0-3.9,1.16A2.87,2.87,0,0,0,266.87,151.58Z"/><path class="cls-1" d="M207.1,139.76a2.87,2.87,0,1,0-3.89,1.15A2.87,2.87,0,0,0,207.1,139.76Z"/><path class="cls-1" d="M171.1,162a2.87,2.87,0,1,0-3.89,1.15A2.87,2.87,0,0,0,171.1,162Z"/><path class="cls-1" d="M155.67,174.43a2.87,2.87,0,1,0-3.89,1.15A2.87,2.87,0,0,0,155.67,174.43Z"/><path class="cls-3" d="M263.39,93.91s-6-18.8-18.53-27.68-22.77,1.09-31,4.4S200.2,66.39,194,61.41s-19,3.38-13.83,20.36,28,20.47,38.44,15.89,16.92-13.88,25.93-12,16,10.53,16,10.53Z"/><polyline class="cls-6" points="258.34 88.05 236.45 71.32 202.68 85.3 189.97 69.43"/><path class="cls-1" d="M205.2,86.67a2.87,2.87,0,1,0-3.89,1.15A2.87,2.87,0,0,0,205.2,86.67Z"/><path class="cls-1" d="M192.68,70.8A2.87,2.87,0,1,0,188.79,72,2.86,2.86,0,0,0,192.68,70.8Z"/><path class="cls-1" d="M239,72.69a2.87,2.87,0,1,0-3.89,1.15A2.86,2.86,0,0,0,239,72.69Z"/><path class="cls-1" d="M260.86,89.42A2.87,2.87,0,1,0,257,90.57,2.88,2.88,0,0,0,260.86,89.42Z"/><path class="cls-3" d="M212.36,231.46s-37.53,48.39-37.22,54.19,5.62,13.93,14.68,10.37,42.68-24.24,53.77-38.58S232.48,212.68,212.36,231.46Z"/><path class="cls-3" d="M217.39,219.75s40.1.79,71.56,13,31.06,14.94,29.88,19.66-11.79,7.86-49.54,9-49.54-2-61.73-17.69"/><path class="cls-3" d="M191.28,278.12s-11.76-7.92-25.08-11.36-38.82-11.66-40-12.45-12.81-10.46-14.26-9.86S90.66,270.22,90.53,272s-.19,2.63,3.44,1.14l6.18-2.55c1.82-.75,20.9-6.05,20.9-6.05s48.7,28.43,55.22,30.84a29.09,29.09,0,0,0,13.23,1.32,18.62,18.62,0,0,0,7.12-4.16"/><path class="cls-5" d="M143.53,260.13c-9-2.82-16.69-5.39-17.33-5.82-1.17-.79-12.81-10.46-14.26-9.86S90.66,270.22,90.53,272s-.19,2.63,3.44,1.14l6.18-2.55c1.82-.75,20.9-6.05,20.9-6.05s6.24,3.64,14.54,8.43A26.93,26.93,0,0,1,143.53,260.13Z"/><path class="cls-7" d="M116.2,261l7.39-8.71c-3.86-3-10.57-8.26-11.65-7.82-1.45.6-21.28,25.77-21.41,27.52s-.19,2.63,3.44,1.14l6.18-2.55c1.82-.75,20.9-6.05,20.9-6.05l.24.14C120.09,262.27,116.2,261,116.2,261Z"/><polyline class="cls-6" points="225.42 248.42 186.77 286.95 122.45 257.17 104.73 262.52 90.53 271.97"/><path class="cls-1" d="M188.16,287.6a2.87,2.87,0,1,0-3.82,1.38A2.86,2.86,0,0,0,188.16,287.6Z"/><path class="cls-1" d="M126.05,259.39a2.87,2.87,0,1,0-3.82,1.38A2.88,2.88,0,0,0,126.05,259.39Z"/><path class="cls-1" d="M107.33,263.74a2.87,2.87,0,1,0-3.82,1.37A2.87,2.87,0,0,0,107.33,263.74Z"/><path class="cls-1" d="M94.62,272.76a2.87,2.87,0,1,0-3.81,1.38A2.86,2.86,0,0,0,94.62,272.76Z"/><path class="cls-3" d="M326.41,337.26c2.56-.85,9.24-.81,13.81-2.18-4.57-4.77-8.33-8.72-8.33-8.72s-10.41-71.18-12.52-76.68-6-7-10.92-5l-22,11.67S326.5,336.54,326.41,337.26Z"/><path class="cls-5" d="M326.41,337.26c2.56-.85,9.24-.81,13.81-2.18-4.57-4.77-8.33-8.72-8.33-8.72s-1.19-7.26-2.87-17.31a25.46,25.46,0,0,1-13.88,5C321.22,326.31,326.45,337,326.41,337.26Z"/><path class="cls-7" d="M332.78,350.2c2.35-.41,26.45-11.07,29.54-14s6.79-8.56,3.51-9.39-6.74,2.21-12.29,3.11-22.88-4.13-22.88-4.13c-1.16,3.55,4,9.42,4,9.42l-8.24,2S330.42,350.61,332.78,350.2Z"/><polyline class="cls-6" points="366.17 328.2 348.11 335.57 328.94 330.05 305.72 253.38 218.33 232.33"/><path class="cls-1" d="M331.81,330.05a2.87,2.87,0,1,0-2.87,2.86A2.87,2.87,0,0,0,331.81,330.05Z"/><path class="cls-1" d="M308.59,253.38a2.87,2.87,0,1,0-2.87,2.87A2.88,2.88,0,0,0,308.59,253.38Z"/><path class="cls-1" d="M221.2,232.33a2.87,2.87,0,1,0-2.87,2.87A2.87,2.87,0,0,0,221.2,232.33Z"/><circle class="cls-1" cx="348.11" cy="335.57" r="2.87"/><path class="cls-1" d="M367.56,328.94a2.87,2.87,0,1,0-2.87,2.87A2.86,2.86,0,0,0,367.56,328.94Z"/></g><g id="Character_1" data-name="Character 1"><line class="cls-8" x1="100" y1="384" x2="383" y2="384"/><path class="cls-9" d="M263.18,92.34s-14.25-13.65-29.51-15.45-19.47,11.84-25.1,18.67-14,2.81-21.88,1.4-15.05,12.05-2.41,24.49,34.33,4.62,41.36-4.41,8.23-20.28,17.06-22.89,19.08,1.61,19.08,1.61Z"/><polyline class="cls-6" points="255.94 89.61 228.72 85.37 205.74 113.8 186.99 105.94"/><path class="cls-1" d="M208.61,113.8a2.87,2.87,0,1,0-2.87,2.87A2.87,2.87,0,0,0,208.61,113.8Z"/><circle class="cls-1" cx="187.16" cy="105.84" r="2.87"/><path class="cls-1" d="M231.59,85.37a2.87,2.87,0,1,0-2.87,2.87A2.87,2.87,0,0,0,231.59,85.37Z"/><path class="cls-1" d="M258.81,89.61a2.87,2.87,0,1,0-2.87,2.86A2.87,2.87,0,0,0,258.81,89.61Z"/><path class="cls-10" d="M272.92,150l26.5,32.55,37.25-26.84s10.73-17.11,12.08-17.11,11.07,7.38,10.4,11.07-8.39,8.72-10.74,9.73a53.4,53.4,0,0,1-6.37,2s-37.58,37.92-42.62,38.25-24.49-17.11-24.49-17.11S265.87,158.7,272.92,150Z"/><path class="cls-10" d="M335.32,157.09c0-1.37,5.45-13.09,5.45-13.09s3.55-5.46,4.64-4.91,7.36,5.18,6.54,6.54-6.27-.82-6.27-.82,3.27,5.73-1.09,9.82"/><line class="cls-8" x1="347.04" y1="146.45" x2="353.04" y2="151.63"/><polyline class="cls-6" points="267.08 157.47 297.74 192.3 339.54 159.32 355.33 143.53"/><path class="cls-1" d="M300.61,192.3a2.87,2.87,0,1,0-2.87,2.87A2.88,2.88,0,0,0,300.61,192.3Z"/><path class="cls-1" d="M342.32,158.73a2.87,2.87,0,1,0-2.87,2.87A2.86,2.86,0,0,0,342.32,158.73Z"/><path class="cls-9" d="M291.24,81.46s4-5.09,15.63-5.45,14.54,10.18,12,13.81-6.91,5.82-5.82,7.64,2.18,6.18-1.45,6.54-5.82-1.45-6.18-4.72S296,81.83,291.24,81.46Z"/><path class="cls-10" d="M309.94,99.89s-.71-6.78-6.79-13.93-21.08-10.72-31.44-7.14-14.29,11.79-15,22.15,8.93,23.93,11.43,26.43,1.79,6.79.36,8.58-2.15,2.86-2.15,2.86l11.08,20.72s3.57-16.44,6.43-21.08a37.7,37.7,0,0,1,4.29-6.07s14.64,4.28,17.15,2.14,6.78-15.36,6.78-15.36,5-2.15,4.29-4.65-6.07-3.57-6.43-7.86A33.25,33.25,0,0,1,309.94,99.89Z"/><ellipse class="cls-4" cx="304.74" cy="109.26" rx="1.16" ry="2.33"/><path class="cls-8" d="M300.47,102.08a4.77,4.77,0,0,1,5.83.78"/><path class="cls-8" d="M307.29,122.72s-4.49.45-5.39-2.69"/><path class="cls-9" d="M303.15,86c-6.07-7.14-21.08-10.72-31.44-7.14s-14.29,11.79-15,22.15c-.7,10.15,8.55,23.39,11.27,26.27,2.61.11,8.72-1.09,13.38-13.41,0,0,3.93.71,6.79-3.93s-.36-9.29,3.57-14.65c3.26-4.45,12.43-3.73,15.45-3.35A32.43,32.43,0,0,0,303.15,86Z"/><path class="cls-10" d="M285.65,115.26s-5-9.65-9.29-7.15-1.43,10.36.71,13.58,7.5-1.07,7.5-1.07"/><path class="cls-9" d="M267.55,134.88s15.77,33.88,18.45,40.6-1,14.09-5.7,19.12a32.69,32.69,0,0,1-9.06,7.05c-1,.67-11.74,17.11-15.77,29.52s-5.7,22.82-17.78,26.51-30.2-5-33.56-19.46,4.7-27.51,13.76-33.55,15.43-11.75,17.78-15.77,6.71-23.49,10.74-34.23S262.18,132.86,267.55,134.88Z"/><path class="cls-11" d="M280.3,194.6c4.7-5,8.39-12.41,5.7-19.12s-18.45-40.6-18.45-40.6c-5.37-2-17.11,9.06-21.14,19.79s-8.39,30.2-10.74,34.23-8.33,9.37-16.93,15.19A75.74,75.74,0,0,0,257,226.94c4.72-11.62,13.31-24.7,14.21-25.29A32.69,32.69,0,0,0,280.3,194.6Z"/><path class="cls-8" d="M256.82,165.7s4.87,19.46,8,24.33"/><path class="cls-8" d="M252.4,167s4.42,11.51,6.19,16.81"/><path class="cls-8" d="M227.19,206.39s15.92,2.66,32.29-1.32"/><path class="cls-8" d="M235.59,203.3s19.88-1,32.29-4.87"/><polyline class="cls-6" points="289.12 100.67 272.75 147.56 251.07 197.55 223.2 244.44"/><path class="cls-1" d="M292,100.67a2.87,2.87,0,1,0-2.87,2.87A2.88,2.88,0,0,0,292,100.67Z"/><path class="cls-1" d="M275.62,147.56a2.87,2.87,0,1,0-2.87,2.87A2.88,2.88,0,0,0,275.62,147.56Z"/><circle class="cls-1" cx="251.07" cy="197.55" r="2.87"/><circle class="cls-1" cx="223.2" cy="244.44" r="2.87"/><path class="cls-9" d="M206.38,238.62S193,298.39,195.76,303.5s11,10.22,17.7,3.15,28.31-40.11,32.24-57.8S216.6,213.07,206.38,238.62Z"/><path class="cls-9" d="M199.7,292.49s-11.8,7.87-20.06,18.87-25.55,31.46-26.73,32.25-14.55,7.86-14.55,9.43,15.73,29.49,17.3,30.28,2.36,1.18,2.36-2.75v-6.69c0-2,2.36-21.62,2.36-21.62s44.82-34.21,49.54-39.32,9.83-15.34,9.83-15.34"/><path class="cls-10" d="M164.89,329.8c-6,7.27-11.35,13.38-12,13.81-1.18.78-14.55,7.86-14.55,9.43s15.73,29.49,17.3,30.28,2.36,1.18,2.36-2.75v-6.69c0-2,2.36-21.62,2.36-21.62s5.74-4.38,13.32-10.24A26.9,26.9,0,0,1,164.89,329.8Z"/><path class="cls-10" d="M155.27,355.4,150,345.25c-4.28,2.41-11.67,6.62-11.67,7.79,0,1.58,15.73,29.49,17.3,30.28s2.36,1.18,2.36-2.75v-6.69c0-2,2.36-21.62,2.36-21.62l.22-.18C157.94,352.29,155.27,355.4,155.27,355.4Z"/><polyline class="cls-6" points="225.42 248.42 206.84 299.73 157.74 347.95 153.75 368.74 157.74 383.34"/><path class="cls-1" d="M208.38,299.73a2.87,2.87,0,1,0-2.87,2.87A2.88,2.88,0,0,0,208.38,299.73Z"/><path class="cls-1" d="M160.6,348a2.87,2.87,0,1,0-2.87,2.87A2.87,2.87,0,0,0,160.6,348Z"/><path class="cls-1" d="M156.85,368.74a2.87,2.87,0,1,0-2.87,2.87A2.87,2.87,0,0,0,156.85,368.74Z"/><path class="cls-1" d="M160.39,382a2.87,2.87,0,1,0-2.87,2.87A2.88,2.88,0,0,0,160.39,382Z"/><path class="cls-9" d="M217.39,219.75s40.1.79,71.56,13,31.06,14.94,29.88,19.66-11.79,7.86-49.54,9-49.54-2-61.73-17.69"/><path class="cls-9" d="M281.87,255.53,245.31,314.9s-13.37,3.94-13,6.29,7.86,25.17,9.44,29.1,5.5,9.44,7.47,6.68.39-7.07,1.57-12.58,5.9-25.16,5.9-25.16,56.22-55.44,59.76-60.16,3.54-7.86-.78-11"/><path class="cls-10" d="M256.93,296,245.31,314.9s-13.37,3.94-13,6.29,7.86,25.17,9.44,29.1,5.5,9.44,7.47,6.68.39-7.07,1.57-12.58,5.9-25.16,5.9-25.16,5.12-5.05,12.36-12.22C261,305.16,258,299.61,256.93,296Z"/><path class="cls-10" d="M232.33,321.19c.39,2.36,7.86,25.17,9.44,29.1s5.5,9.44,7.47,6.68.39-7.07,1.57-12.58,5.9-25.16,5.9-25.16c-3.54-1.18-9.44,3.93-9.44,3.93l-2-8.26S231.94,318.84,232.33,321.19Z"/><polyline class="cls-6" points="216.57 232.05 305.93 251.96 252.4 318.31 247.53 340.43 249.24 356.98"/><path class="cls-1" d="M219,231.61a2.87,2.87,0,1,0-2.87,2.87A2.87,2.87,0,0,0,219,231.61Z"/><path class="cls-1" d="M307.47,252a2.87,2.87,0,1,0-2.87,2.87A2.87,2.87,0,0,0,307.47,252Z"/><circle class="cls-1" cx="253.28" cy="319.2" r="2.87"/><circle class="cls-1" cx="247.53" cy="340.43" r="2.87"/><path class="cls-1" d="M252.62,357.47a2.87,2.87,0,1,0-2.87,2.87A2.87,2.87,0,0,0,252.62,357.47Z"/><path class="cls-10" d="M260.5,141.59s-53.68,16.77-57,19.46c-2.73,2.19-18.2,32.06-23.8,43,0,0-9.08,11.35-9.08,14.71s7,5,7,5a5,5,0,0,0,4.36,2c2.68-.33,7-10.06,6.37-11.74-.46-1.16-.12-4.87.13-7.06,6.06-8.31,25.37-32.87,25.37-32.87s50.67-9.73,54.36-15.1S270.9,140.92,260.5,141.59Z"/><polyline class="cls-6" points="264.34 150.22 206.84 167.47 185.16 205.07 177.63 223.79"/><path class="cls-1" d="M267.21,150.21a2.87,2.87,0,1,0-2.87,2.87A2.86,2.86,0,0,0,267.21,150.21Z"/><circle class="cls-1" cx="206.18" cy="168.35" r="2.87"/><circle class="cls-1" cx="185.16" cy="205.07" r="2.87"/><circle class="cls-1" cx="177.54" cy="223.37" r="2.87"/></g><g id="Window_2" data-name="Window 2"><rect class="cls-8" x="78.93" y="38.44" width="315.36" height="356.83"/><rect class="cls-12" x="78.93" y="38.44" width="315.36" height="15.43"/><path class="cls-13" d="M92,45.16a3.27,3.27,0,1,1-3.27-3.27A3.27,3.27,0,0,1,92,45.16Z"/><path class="cls-13" d="M101.89,45.16a3.27,3.27,0,1,1-3.27-3.27A3.27,3.27,0,0,1,101.89,45.16Z"/><path class="cls-13" d="M111.81,45.16a3.27,3.27,0,1,1-3.27-3.27A3.27,3.27,0,0,1,111.81,45.16Z"/></g><g id="Windows_1" data-name="Windows 1"><rect class="cls-14" x="27.93" y="329.85" width="95.65" height="131.91"/><rect class="cls-15" x="27.93" y="329.85" width="95.65" height="28.44"/><path class="cls-16" d="M45.18,346a4.24,4.24,0,1,1-4.24-4.24A4.24,4.24,0,0,1,45.18,346Z"/><line class="cls-16" x1="37.64" y1="349.34" x2="33.4" y2="354.05"/><line class="cls-17" x1="28.42" y1="358.05" x2="122.03" y2="358.05"/><rect class="cls-12" x="27.93" y="326.96" width="95.65" height="11.57"/><path class="cls-15" d="M41,333a3.1,3.1,0,1,1-3.1-3.1A3.09,3.09,0,0,1,41,333Z"/><path class="cls-15" d="M51.37,333a3.1,3.1,0,1,1-3.1-3.1A3.09,3.09,0,0,1,51.37,333Z"/><path class="cls-15" d="M61.7,333a3.1,3.1,0,1,1-3.1-3.1A3.09,3.09,0,0,1,61.7,333Z"/><line class="cls-17" x1="28.42" y1="377.77" x2="122.03" y2="377.77"/><polygon class="cls-18" points="44.03 368.32 35.12 364.71 35.12 371.93 44.03 368.32"/><line class="cls-17" x1="28.42" y1="397.49" x2="122.03" y2="397.49"/><polygon class="cls-18" points="44.03 388.04 35.12 384.43 35.12 391.65 44.03 388.04"/><line class="cls-17" x1="28.42" y1="417.2" x2="122.03" y2="417.2"/><polygon class="cls-18" points="44.03 407.75 35.12 404.14 35.12 411.36 44.03 407.75"/><line class="cls-17" x1="28.42" y1="436.92" x2="122.03" y2="436.92"/><polygon class="cls-18" points="44.03 427.47 35.12 423.86 35.12 431.08 44.03 427.47"/><line class="cls-17" x1="28.42" y1="456.63" x2="122.03" y2="456.63"/><polygon class="cls-18" points="44.03 447.18 35.12 443.57 35.12 450.8 44.03 447.18"/><line class="cls-16" x1="53.89" y1="367.91" x2="108.11" y2="367.91"/><line class="cls-16" x1="53.89" y1="387.81" x2="108.11" y2="387.81"/><line class="cls-16" x1="53.89" y1="407.7" x2="108.11" y2="407.7"/><line class="cls-16" x1="53.89" y1="427.88" x2="108.11" y2="427.88"/><line class="cls-16" x1="53.89" y1="447.49" x2="108.11" y2="447.49"/><rect class="cls-14" x="169.21" y="414" width="308" height="61"/><line class="cls-16" x1="216.96" y1="415.13" x2="216.96" y2="417.88"/><line class="cls-16" x1="222.71" y1="415.13" x2="222.71" y2="417.88"/><line class="cls-16" x1="228.46" y1="415.13" x2="228.46" y2="417.88"/><line class="cls-16" x1="234.21" y1="415.13" x2="234.21" y2="417.88"/><line class="cls-16" x1="239.96" y1="415.13" x2="239.96" y2="417.88"/><line class="cls-16" x1="245.71" y1="415.13" x2="245.71" y2="417.88"/><line class="cls-16" x1="251.46" y1="415.13" x2="251.46" y2="417.88"/><line class="cls-16" x1="257.21" y1="415.13" x2="257.21" y2="417.88"/><line class="cls-16" x1="262.96" y1="415.13" x2="262.96" y2="417.88"/><line class="cls-16" x1="268.71" y1="415.13" x2="268.71" y2="417.88"/><line class="cls-16" x1="274.46" y1="415.13" x2="274.46" y2="417.88"/><line class="cls-16" x1="280.21" y1="415.13" x2="280.21" y2="417.88"/><line class="cls-16" x1="285.96" y1="415.13" x2="285.96" y2="417.88"/><line class="cls-16" x1="291.71" y1="415.13" x2="291.71" y2="417.88"/><line class="cls-16" x1="297.46" y1="415.13" x2="297.46" y2="417.88"/><line class="cls-16" x1="303.21" y1="415.13" x2="303.21" y2="417.88"/><line class="cls-16" x1="308.96" y1="415.13" x2="308.96" y2="417.88"/><line class="cls-16" x1="314.71" y1="415.13" x2="314.71" y2="417.88"/><line class="cls-16" x1="320.46" y1="415.13" x2="320.46" y2="417.88"/><line class="cls-16" x1="326.21" y1="415.13" x2="326.21" y2="417.88"/><line class="cls-16" x1="331.96" y1="415.13" x2="331.96" y2="417.88"/><line class="cls-16" x1="337.71" y1="415.13" x2="337.71" y2="417.88"/><line class="cls-16" x1="343.46" y1="415.13" x2="343.46" y2="417.88"/><line class="cls-16" x1="349.21" y1="415.13" x2="349.21" y2="417.88"/><line class="cls-16" x1="354.96" y1="415.13" x2="354.96" y2="417.88"/><line class="cls-16" x1="360.71" y1="415.13" x2="360.71" y2="417.88"/><line class="cls-16" x1="366.84" y1="415.13" x2="366.84" y2="417.88"/><line class="cls-16" x1="372.97" y1="415.13" x2="372.97" y2="417.88"/><line class="cls-16" x1="379.09" y1="415.13" x2="379.09" y2="417.88"/><line class="cls-16" x1="385.22" y1="415.13" x2="385.22" y2="417.88"/><line class="cls-16" x1="391.35" y1="415.13" x2="391.35" y2="417.88"/><line class="cls-16" x1="397.47" y1="415.13" x2="397.47" y2="417.88"/><line class="cls-16" x1="403.6" y1="415.13" x2="403.6" y2="417.88"/><line class="cls-16" x1="409.73" y1="415.13" x2="409.73" y2="417.88"/><line class="cls-16" x1="415.85" y1="415.13" x2="415.85" y2="417.88"/><line class="cls-16" x1="421.98" y1="415.13" x2="421.98" y2="417.88"/><line class="cls-16" x1="428.11" y1="415.13" x2="428.11" y2="417.88"/><line class="cls-16" x1="434.24" y1="415.13" x2="434.24" y2="417.88"/><line class="cls-16" x1="440.36" y1="415.13" x2="440.36" y2="417.88"/><line class="cls-16" x1="446.49" y1="415.13" x2="446.49" y2="417.88"/><line class="cls-16" x1="452.62" y1="415.13" x2="452.62" y2="417.88"/><line class="cls-16" x1="458.74" y1="415.13" x2="458.74" y2="417.88"/><line class="cls-16" x1="464.87" y1="415.13" x2="464.87" y2="417.88"/><line class="cls-16" x1="471" y1="415.13" x2="471" y2="417.88"/><line class="cls-16" x1="483.25" y1="415.13" x2="483.25" y2="417.88"/><line class="cls-16" x1="422.63" y1="415.13" x2="422.63" y2="417.88"/><line class="cls-16" x1="428.76" y1="415.13" x2="428.76" y2="417.88"/><line class="cls-16" x1="434.89" y1="415.13" x2="434.89" y2="417.88"/><line class="cls-16" x1="441.01" y1="415.13" x2="441.01" y2="417.88"/><line class="cls-16" x1="447.14" y1="415.13" x2="447.14" y2="417.88"/><line class="cls-16" x1="453.27" y1="415.13" x2="453.27" y2="417.88"/><line class="cls-16" x1="459.4" y1="415.13" x2="459.4" y2="417.88"/><line class="cls-16" x1="465.52" y1="415.13" x2="465.52" y2="417.88"/><line class="cls-16" x1="471.65" y1="415.13" x2="471.65" y2="417.88"/><rect class="cls-1" x="211.07" y="419.87" width="266.21" height="5.56"/><rect class="cls-4" x="249.64" y="431.29" width="160.92" height="5.57"/><rect class="cls-4" x="425.51" y="431.29" width="11.34" height="5.57"/><rect class="cls-1" x="211.07" y="442.86" width="77.61" height="5.57"/><rect class="cls-1" x="379.62" y="442.86" width="77.61" height="5.57"/><rect class="cls-17" x="169.21" y="419.87" width="308" height="55.13"/><rect class="cls-17" x="169.21" y="419.87" width="41.86" height="55.13"/><line class="cls-17" x1="169.18" y1="425.43" x2="477.28" y2="425.43"/><line class="cls-17" x1="169.18" y1="431.29" x2="477.28" y2="431.29"/><line class="cls-17" x1="169.18" y1="437.15" x2="477.28" y2="437.15"/><line class="cls-17" x1="169.18" y1="443" x2="477.28" y2="443"/><line class="cls-17" x1="169.18" y1="448.86" x2="477.28" y2="448.86"/><polygon class="cls-19" points="237.43 419.57 235.91 420.7 234.5 419.57 234.5 415.18 237.43 415.18 237.43 419.57"/><polygon class="cls-19" points="339.34 419.57 337.82 420.7 336.41 419.57 336.41 415.18 339.34 415.18 339.34 419.57"/><polygon class="cls-19" points="441.25 419.57 439.74 420.7 438.32 419.57 438.32 415.18 441.25 415.18 441.25 419.57"/><line class="cls-17" x1="235.91" y1="420.7" x2="235.91" y2="449.25"/><rect class="cls-20" x="197.46" y="421.25" width="11" height="2.5"/><rect class="cls-20" x="197.46" y="427" width="11" height="2.5"/><rect class="cls-20" x="197.46" y="432.75" width="11" height="2.5"/><rect class="cls-20" x="197.46" y="438.5" width="11" height="2.5"/><rect class="cls-20" x="197.46" y="444.25" width="11" height="2.5"/><rect class="cls-20" x="188.71" y="421.25" width="6.75" height="2.5"/><rect class="cls-20" x="188.71" y="427" width="6.75" height="2.5"/><rect class="cls-20" x="188.71" y="432.75" width="6.75" height="2.5"/><rect class="cls-20" x="188.71" y="438.5" width="6.75" height="2.5"/><rect class="cls-20" x="188.71" y="444.25" width="6.75" height="2.5"/><rect class="cls-14" x="353.92" y="172.58" width="108.01" height="141.77"/><rect class="cls-12" x="353.92" y="169.69" width="108.01" height="11.57"/><rect class="cls-17" x="384.06" y="191.17" width="44.11" height="40.64" rx="3.47"/><circle class="cls-13" cx="419.5" cy="212.24" r="4.71"/><line class="cls-17" x1="441.92" y1="248.86" x2="377.48" y2="248.86"/><line class="cls-17" x1="441.92" y1="263.73" x2="377.48" y2="263.73"/><line class="cls-17" x1="441.92" y1="278.6" x2="377.48" y2="278.6"/><line class="cls-17" x1="441.92" y1="293.47" x2="377.48" y2="293.47"/><circle class="cls-13" cx="419.61" cy="248.86" r="4.71"/><path class="cls-13" d="M401.52,277.61a4.71,4.71,0,1,1-4.71-4.71A4.71,4.71,0,0,1,401.52,277.61Z"/><circle class="cls-13" cx="428.53" cy="292.98" r="4.71"/><circle class="cls-13" cx="419.61" cy="263.24" r="4.71"/><path class="cls-15" d="M367,175.73a3.1,3.1,0,1,1-3.1-3.1A3.1,3.1,0,0,1,367,175.73Z"/><path class="cls-15" d="M377.36,175.73a3.1,3.1,0,1,1-3.1-3.1A3.1,3.1,0,0,1,377.36,175.73Z"/><path class="cls-15" d="M387.69,175.73a3.1,3.1,0,1,1-3.1-3.1A3.1,3.1,0,0,1,387.69,175.73Z"/></g></svg>